<svg width="87" height="51" viewBox="0 0 87 51" fill="none" xmlns="http://www.w3.org/2000/svg">
<g clip-path="url(#clip0_156_2667)">
<path d="M1.70001 1.10001H16V4.10001H5.00001V11.6H15.7V14.6H5.00001V24.7H16V27.7H1.70001V1.10001Z" fill="#231F20"/>
<path d="M34.7 6.1C33.7 4.5 32.5 3.6 30.5 3.6C28.3 3.6 26 5.1 26 7.4C26 9.5 28 10.6 29.7 11.2L31.6 12C35.4 13.5 38.2 15.5 38.2 20C38.2 24.8 34.5 28.3 29.7 28.3C25.4 28.3 22 25.1 21.5 20.8L24.8 20.1C24.8 23.1 27.1 25.2 30 25.2C32.9 25.2 34.9 22.8 34.9 20C34.9 17.1 32.6 15.9 30.3 14.9L28.5 14.2C25.4 12.9 22.7 11.1 22.7 7.4C22.7 3.1 26.5 0.5 30.5 0.5C33.5 0.5 35.9 2 37.4 4.5L34.7 6.1Z" fill="#231F20"/>
<path d="M76.6 27.7H73.3V4.10001H67V1.10001H82.9V4.10001H76.6V27.7Z" fill="#231F20"/>
<path d="M54.7 8.00001L46.8 27.7H43.2L54.7 -0.299988L66.3 27.7H62.7L54.7 8.00001Z" fill="#F05A29"/>
<path d="M33.5536 33.5V49.5H31.6786L22.9598 36.9375H22.8036V49.5H20.8661V33.5H22.7411L31.4911 46.0937H31.6473V33.5H33.5536ZM37.4305 49.5V33.5H39.368V47.7812H46.8055V49.5H37.4305ZM51.743 33.5V49.5H49.8055V33.5H51.743ZM68.3153 33.5V49.5H66.4403L57.7216 36.9375H57.5653V49.5H55.6278V33.5H57.5028L66.2528 46.0937H66.4091V33.5H68.3153ZM72.1923 49.5V33.5H81.8485V35.2187H74.1298V40.625H81.3485V42.3437H74.1298V47.7812H81.9735V49.5H72.1923Z" fill="black"/>
<path d="M9.1 42.7C8.5 42.7 8 42.2 8 41.6V33.4C8 32.8 8.5 32.3 9.1 32.3C9.8 32.3 10.3 32.8 10.3 33.4V41.6C10.3 42.2 9.8 42.7 9.1 42.7Z" fill="black"/>
<path d="M9.20001 50.8C6.80001 50.8 4.50001 49.9 2.80001 48.2C1.10001 46.5 0.200012 44.3 0.200012 41.8C0.200012 39.4 1.10001 37.2 2.80001 35.5C3.26668 35.0333 3.83335 34.6 4.50001 34.2C5.00001 33.9 5.70001 34 6.00001 34.6C6.30001 35.1 6.20001 35.8 5.60001 36.1C5.20001 36.3667 4.80001 36.7 4.40001 37.1C3.10001 38.4 2.40001 40 2.40001 41.8C2.40001 43.7 3.10001 45.3 4.40001 46.6C5.70001 47.9 7.40001 48.6 9.20001 48.6C11 48.6 12.7 47.9 14 46.6C15.2 45.3 15.9 43.7 15.9 41.8C15.9 40 15.2 38.4 14 37.1C13.6 36.7 13.1667 36.3667 12.7 36.1C12.2 35.8 12.1 35.1 12.4 34.6C12.7 34 13.4 33.9 13.9 34.2C14.5 34.6 15.0667 35.0333 15.6 35.5C17.3 37.2 18.2 39.4 18.2 41.8C18.2 44.3 17.3 46.5 15.6 48.2C13.9 49.9 11.6 50.8 9.20001 50.8Z" fill="black"/>
</g>
<defs>
<clipPath id="clip0_156_2667">
<rect width="87" height="51" fill="white"/>
</clipPath>
</defs>
</svg>
