<svg width="148" height="60" viewBox="0 0 148 60" fill="none" xmlns="http://www.w3.org/2000/svg">
<path fill-rule="evenodd" clip-rule="evenodd" d="M16.111 0.545654H8.10198V8.52527H16.111V0.545654ZM16.1929 54.1695H23.444V46.1087H16.1929V12.6674H16.0905H8.12247H1.0762V20.6673H8.12247V46.1087H1.0762V54.1695H8.12247H16.1929ZM61.1333 12.7283H36.1436H31.4939H28.0732V54.2101L61.1333 54.1695L69.8182 44.9919V21.9058L61.1333 12.7283ZM36.3894 20.5455V20.7079H36.1436V26.7383H55.6028V30.2103H36.3894V30.3322H36.1436V36.3626H55.6028V39.8752H36.3894V39.9564H36.1436V46.1899H57.6511L57.6896 46.1493H57.9993L62.137 41.7838V24.9109L57.9993 20.5455H36.3894Z" fill="url(#paint0_linear_201_1627)"/>
<path d="M86.6965 13.2968V12.2613H90.6088C93.8452 12.2613 94.8489 14.3323 94.8489 16.3221C94.8489 18.982 93.4765 20.5251 90.4859 20.5251H86.676V19.4896H87.8026V13.2968H86.6965ZM89.0931 19.4896H90.5679C92.8825 19.4896 93.5994 18.0886 93.5994 16.3424C93.5994 14.576 92.7186 13.2968 90.5883 13.2968H89.0931V19.4896Z" fill="#333333"/>
<path d="M96.7128 15.7739H95.7911V14.779H97.8599V19.5302H98.7816V20.5251H95.7911V19.5302H96.7128V15.7739ZM97.9418 12.8095C97.9418 13.1953 97.6346 13.4998 97.2454 13.4998C96.8562 13.4998 96.549 13.1953 96.549 12.8095C96.549 12.4237 96.8562 12.1191 97.2454 12.1191C97.6346 12.1394 97.9418 12.444 97.9418 12.8095Z" fill="#333333"/>
<path d="M99.5805 18.5556H100.605V18.7587C100.707 19.3272 101.24 19.6927 101.998 19.6927C102.714 19.6927 103.186 19.4084 103.186 18.982C103.186 17.9059 101.158 18.5962 100.052 17.4998C99.7853 17.2359 99.601 16.8298 99.601 16.4034C99.601 15.4085 100.461 14.7181 101.629 14.7181C102.161 14.7181 102.653 14.8399 103.042 15.043V14.8196H104.046V16.7282H103.042V16.3831C102.714 15.8958 102.284 15.6724 101.69 15.6724C101.076 15.6724 100.666 15.9567 100.666 16.3831C100.666 17.3374 102.899 16.7892 103.862 17.7435C104.21 18.0886 104.353 18.5353 104.353 18.9414C104.353 19.9972 103.452 20.6876 102.141 20.6876C101.506 20.6876 101.035 20.5455 100.625 20.2815V20.6064H99.601V18.5556H99.5805Z" fill="#333333"/>
<path d="M106.401 17.9262C106.565 19.0429 107.303 19.6927 108.388 19.6927C109.146 19.6927 109.843 19.3678 110.273 18.7587L111.276 19.2054C110.641 20.1597 109.597 20.7079 108.368 20.7079C106.483 20.7079 105.131 19.449 105.131 17.6622C105.131 15.7942 106.668 14.6166 108.183 14.6166C109.802 14.6166 111.276 15.8348 111.276 17.9465H106.401V17.9262ZM110.109 17.0937C109.925 16.18 109.105 15.51 108.204 15.51C107.303 15.51 106.606 16.1394 106.442 17.0937H110.109Z" fill="#333333"/>
<path d="M114.247 15.4694C115.025 14.9008 115.619 14.6775 116.233 14.6775C117.053 14.6775 117.749 15.1851 117.749 16.3018V19.5099H118.753V20.5048H116.602V16.7485C116.602 16.0176 116.397 15.6927 115.926 15.6927C115.455 15.6927 114.841 15.9567 114.247 16.4237V19.5099H115.25V20.5048H112.116V19.5099H113.12V15.7536H112.096V14.7587H114.247V15.4694ZM117.237 12.2613C117.237 13.2562 116.848 13.9059 116.152 13.9059C115.414 13.9059 114.759 13.1547 114.308 13.1547C114.021 13.1547 113.96 13.3983 113.96 13.8044H113.263C113.263 12.6673 113.775 12.2003 114.349 12.2003C115.004 12.2003 115.742 12.9313 116.131 12.9313C116.418 12.9313 116.541 12.708 116.561 12.241H117.237V12.2613Z" fill="#333333"/>
<path d="M122.297 14.6166C124.038 14.6166 125.349 15.9161 125.349 17.6622C125.349 19.4084 124.038 20.7079 122.297 20.7079C120.555 20.7079 119.245 19.4084 119.245 17.6622C119.245 15.9161 120.535 14.6166 122.297 14.6166ZM122.297 19.5911C123.341 19.5911 124.12 18.7587 124.12 17.6419C124.12 16.5252 123.341 15.6927 122.297 15.6927C121.272 15.6927 120.474 16.5252 120.474 17.6419C120.474 18.779 121.252 19.5911 122.297 19.5911Z" fill="#333333"/>
<path d="M136.901 16.1597V17.1749H136.02C135.816 17.9465 135.529 18.5353 135.201 18.9414L135.652 19.5099H136.922V20.5455H135.017L134.464 19.8145C133.706 20.4033 133.009 20.6876 132.251 20.6876C130.551 20.6876 129.261 19.4896 129.261 17.9059C129.261 16.8095 129.896 15.977 131.145 15.4288C130.756 14.9212 130.572 14.4745 130.572 13.9872C130.572 12.9719 131.453 12.1598 132.6 12.1598C133.726 12.1598 134.587 12.9313 134.587 13.9262C134.587 14.7384 134.136 15.3475 132.845 15.8145L134.546 18.0886C134.832 17.581 135.078 16.911 135.201 16.18H136.901V16.1597ZM131.78 16.1597C130.94 16.5455 130.531 17.0937 130.531 17.8247C130.531 18.8196 131.371 19.6318 132.374 19.6318C132.886 19.6318 133.398 19.4084 133.808 18.982L131.78 16.1597ZM133.48 13.8653C133.48 13.378 133.132 13.1141 132.641 13.1141C132.129 13.1141 131.76 13.3983 131.76 13.9059C131.76 14.1699 131.903 14.4542 132.272 14.9821C133.153 14.6166 133.48 14.312 133.48 13.8653Z" fill="#333333"/>
<path d="M86.6965 24.586V23.5505H90.6088C93.8452 23.5505 94.8489 25.6216 94.8489 27.6114C94.8489 30.2713 93.4765 31.8144 90.4859 31.8144H86.676V30.7789H87.8026V24.586H86.6965ZM89.0931 30.7992H90.5679C92.8825 30.7992 93.5994 29.3982 93.5994 27.652C93.5994 25.8855 92.7186 24.6063 90.5883 24.6063H89.0931V30.7992Z" fill="#333333"/>
<path d="M97.2045 29.2357C97.3683 30.3525 98.1057 31.0022 99.1914 31.0022C99.9492 31.0022 100.646 30.6773 101.076 30.0682L102.08 30.5149C101.445 31.4692 100.4 32.0174 99.1709 32.0174C97.2864 32.0174 95.9345 30.7586 95.9345 28.9718C95.9345 27.1038 97.4708 25.9261 98.9865 25.9261C100.605 25.9261 102.08 27.1444 102.08 29.256H97.2045V29.2357ZM100.912 28.4033C100.728 27.4896 99.9083 26.8195 99.007 26.8195C98.1057 26.8195 97.4093 27.4489 97.2454 28.4033H100.912Z" fill="#333333"/>
<path d="M103.042 29.8448H104.066V30.0479C104.169 30.6164 104.701 30.9819 105.459 30.9819C106.176 30.9819 106.647 30.6976 106.647 30.2712C106.647 29.1951 104.619 29.8855 103.513 28.789C103.247 28.5251 103.063 28.119 103.063 27.6926C103.063 26.6977 103.923 26.0073 105.091 26.0073C105.623 26.0073 106.115 26.1291 106.504 26.3322V26.1088H107.508V28.0175H106.504V27.6723C106.176 27.185 105.746 26.9616 105.152 26.9616C104.537 26.9616 104.128 27.2459 104.128 27.6723C104.128 28.6266 106.36 28.0784 107.323 29.0327C107.671 29.3778 107.815 29.8245 107.815 30.2306C107.815 31.2865 106.914 31.9768 105.603 31.9768C104.968 31.9768 104.496 31.8347 104.087 31.5707V31.8956H103.063V29.8448H103.042Z" fill="#333333"/>
<path d="M114.533 31.8347H112.526V31.124C111.809 31.7129 111.297 31.9362 110.662 31.9362C109.556 31.9362 108.696 31.124 108.696 30.1088C108.696 29.053 109.617 28.2408 110.805 28.2408C111.317 28.2408 111.932 28.4236 112.383 28.7281V27.9769C112.383 27.1647 111.789 26.8601 111.092 26.8601C110.539 26.8601 110.109 27.0835 109.843 27.5505L108.757 27.2662C109.249 26.3728 110.088 25.9261 111.256 25.9261C112.956 25.9261 113.53 26.7586 113.53 27.6926V30.8398H114.533V31.8347ZM112.383 29.6824C111.891 29.2966 111.379 29.1139 110.887 29.1139C110.252 29.1139 109.781 29.52 109.781 30.1088C109.781 30.6773 110.211 31.0631 110.826 31.0631C111.338 31.0631 111.911 30.7992 112.383 30.3728V29.6824Z" fill="#333333"/>
<path d="M116.111 27.0835H114.943V26.0885H117.012V27.388H117.032C117.401 26.4337 118.138 26.0073 118.855 26.0073H119.613V27.1444H118.999C117.667 27.1444 117.258 27.8956 117.258 29.1951V30.8398H118.507V31.8347H114.963V30.8398H116.111V27.0835Z" fill="#333333"/>
<path d="M121.416 27.0835H120.248V26.0885H122.317V27.388H122.337C122.706 26.4337 123.444 26.0073 124.16 26.0073H124.918V27.1444H124.304C122.972 27.1444 122.563 27.8956 122.563 29.1951V30.8398H123.812V31.8347H120.269V30.8398H121.416V27.0835Z" fill="#333333"/>
<path d="M128.134 25.9058C129.875 25.9058 131.186 27.2053 131.186 28.9514C131.186 30.6976 129.875 31.9971 128.134 31.9971C126.393 31.9971 125.082 30.6976 125.082 28.9514C125.082 27.2053 126.373 25.9058 128.134 25.9058ZM128.114 30.9007C129.158 30.9007 129.937 30.0682 129.937 28.9514C129.937 27.8347 129.158 27.0022 128.114 27.0022C127.09 27.0022 126.291 27.8347 126.291 28.9514C126.311 30.0682 127.09 30.9007 128.114 30.9007Z" fill="#333333"/>
<path d="M132.989 24.5657H131.965V23.5708H134.156V30.8398H135.058V31.8347H131.944V30.8398H133.009V24.5657H132.989Z" fill="#333333"/>
<path d="M136.573 24.5657H135.549V23.5708H137.741V30.8398H138.642V31.8347H135.529V30.8398H136.594V24.5657H136.573Z" fill="#333333"/>
<path d="M142.329 25.9058C144.07 25.9058 145.381 27.2053 145.381 28.9514C145.381 30.6976 144.07 31.9971 142.329 31.9971C140.588 31.9971 139.277 30.6976 139.277 28.9514C139.277 27.2053 140.588 25.9058 142.329 25.9058ZM142.329 30.9007C143.374 30.9007 144.152 30.0682 144.152 28.9514C144.152 27.8347 143.374 27.0022 142.329 27.0022C141.305 27.0022 140.506 27.8347 140.506 28.9514C140.506 30.0682 141.285 30.9007 142.329 30.9007Z" fill="#333333"/>
<path d="M87.8231 35.8955H86.9218V34.86H89.9943V35.8955H89.0931V42.0884H89.9943V43.1239H86.9218V42.0884H87.8231V35.8955Z" fill="#333333"/>
<path d="M92.8825 38.0681C93.6608 37.4996 94.2548 37.2762 94.8693 37.2762C95.6887 37.2762 96.3851 37.7839 96.3851 38.9006V42.1087H97.3888V43.1036H95.2381V39.3473C95.2381 38.6163 95.0332 38.2915 94.5621 38.2915C94.091 38.2915 93.4765 38.5554 92.8825 39.0224V42.1087H93.8862V43.1036H90.7522V42.1087H91.7559V38.3524H90.7317V37.3575H92.903V38.0681H92.8825Z" fill="#333333"/>
<path d="M97.7985 37.3778H98.5563V36.4844L99.7034 35.4489V37.3778H100.769V38.3727H99.7034V41.7026C99.7034 42.2711 100.215 42.2305 100.769 42.0478V43.063C100.502 43.1442 100.195 43.2254 99.9287 43.2254C99.1094 43.2254 98.5563 42.8599 98.5563 41.865V38.393H97.7985V37.3778Z" fill="#333333"/>
<path d="M102.837 40.5249C103.001 41.6417 103.739 42.2914 104.824 42.2914C105.582 42.2914 106.279 41.9666 106.709 41.3574L107.712 41.8041C107.077 42.7584 106.033 43.3066 104.804 43.3066C102.919 43.3066 101.567 42.0478 101.567 40.261C101.567 38.393 103.104 37.2153 104.619 37.2153C106.238 37.2153 107.712 38.4336 107.712 40.5452H102.837V40.5249ZM106.545 39.7128C106.36 38.7991 105.541 38.129 104.64 38.129C103.739 38.129 103.042 38.7585 102.878 39.7128H106.545Z" fill="#333333"/>
<path d="M109.597 38.3727H108.429V37.3778H110.498V38.6773H110.519C110.887 37.723 111.625 37.2966 112.342 37.2966H113.1V38.4336H112.485C111.154 38.4336 110.744 39.1849 110.744 40.4844V42.129H111.993V43.1239H108.45V42.129H109.597V38.3727Z" fill="#333333"/>
<path d="M119.367 43.1239H117.36V42.4133C116.643 43.0021 116.131 43.2254 115.496 43.2254C114.39 43.2254 113.53 42.4133 113.53 41.398C113.53 40.3422 114.451 39.53 115.639 39.53C116.152 39.53 116.766 39.7128 117.217 40.0173V39.2661C117.217 38.4539 116.623 38.1493 115.926 38.1493C115.373 38.1493 114.943 38.3727 114.677 38.8397L113.591 38.5554C114.083 37.662 114.923 37.2153 116.09 37.2153C117.79 37.2153 118.364 38.0478 118.364 38.9818V42.129H119.367V43.1239ZM117.217 40.9919C116.725 40.6062 116.213 40.4234 115.721 40.4234C115.086 40.4234 114.615 40.8295 114.615 41.4183C114.615 41.9869 115.045 42.3726 115.66 42.3726C116.172 42.3726 116.746 42.1087 117.217 41.6823V40.9919Z" fill="#333333"/>
<path d="M125.451 39.5504H124.427C124.365 39.1443 124.201 38.8194 123.915 38.596C123.648 38.3727 123.3 38.2509 122.891 38.2509C121.866 38.2509 121.17 39.0427 121.17 40.2001C121.17 41.4387 121.887 42.2711 122.931 42.2711C123.71 42.2711 124.324 41.8651 124.673 41.1341L125.615 41.5808C125.103 42.7178 124.16 43.3067 122.891 43.3067C120.883 43.3067 119.941 41.6823 119.941 40.2204C119.941 38.5554 121.211 37.2357 122.788 37.2357C123.423 37.2357 123.997 37.4387 124.427 37.8042V37.4184H125.451V39.5504Z" fill="#333333"/>
<path d="M126.27 37.3778H127.028V36.4844L128.175 35.4489V37.3778H129.24V38.3727H128.175V41.7026C128.175 42.2711 128.687 42.2305 129.24 42.0478V43.063C128.974 43.1442 128.667 43.2254 128.401 43.2254C127.581 43.2254 127.028 42.8599 127.028 41.865V38.393H126.27V37.3778Z" fill="#333333"/>
<path d="M130.818 38.3727H129.896V37.3778H131.965V42.129H132.886V43.1239H129.896V42.129H130.818V38.3727ZM132.067 35.4286C132.067 35.8144 131.76 36.1189 131.371 36.1189C130.981 36.1189 130.674 35.8144 130.674 35.4286C130.674 35.0428 130.981 34.7382 131.371 34.7382C131.76 34.7382 132.067 35.0428 132.067 35.4286Z" fill="#333333"/>
<path d="M133.931 38.3727H132.907V37.3778H135.836V38.3727H135.078L136.328 41.6417L137.577 38.3727H136.758V37.3778H139.605V38.3727H138.704L136.84 43.2254H135.815L133.931 38.3727Z" fill="#333333"/>
<path d="M142.698 37.2153C144.439 37.2153 145.75 38.5148 145.75 40.261C145.75 42.0072 144.439 43.3066 142.698 43.3066C140.957 43.3066 139.646 42.0072 139.646 40.261C139.646 38.5148 140.936 37.2153 142.698 37.2153ZM142.677 42.2102C143.722 42.2102 144.5 41.3777 144.5 40.261C144.5 39.1442 143.722 38.3118 142.677 38.3118C141.653 38.3118 140.854 39.1442 140.854 40.261C140.854 41.3777 141.653 42.2102 142.677 42.2102Z" fill="#333333"/>
<path d="M86.6965 47.2051V46.1696H90.6088C93.8452 46.1696 94.8489 48.2406 94.8489 50.2304C94.8489 52.8903 93.4765 54.4334 90.4859 54.4334H86.676V53.3979H87.8026V47.2051H86.6965ZM89.0931 53.3979H90.5679C92.8825 53.3979 93.5994 51.9969 93.5994 50.2507C93.5994 48.4843 92.7186 47.2051 90.5883 47.2051H89.0931V53.3979Z" fill="#333333"/>
<path d="M96.7128 49.6822H95.7911V48.6873H97.8599V53.4385H98.7816V54.4334H95.7911V53.4385H96.7128V49.6822ZM97.9418 46.7178C97.9418 47.1036 97.6346 47.4081 97.2454 47.4081C96.8562 47.4081 96.549 47.1036 96.549 46.7178C96.549 46.332 96.8562 46.0274 97.2454 46.0274C97.6346 46.0477 97.9418 46.3523 97.9418 46.7178Z" fill="#333333"/>
<path d="M106.627 49.6822H105.582V54.4741C105.582 56.5248 103.78 57.1339 102.469 57.1339C101.588 57.1339 100.953 56.9309 100.195 56.3624L100.932 55.5299C101.444 55.936 101.998 56.1187 102.571 56.1187C103.288 56.1187 104.435 55.7532 104.435 54.4944V53.6213H104.415C103.964 54.1898 103.145 54.5756 102.346 54.5756C100.707 54.5756 99.519 53.3167 99.519 51.6111C99.519 49.8853 100.769 48.5655 102.387 48.5655C103.165 48.5655 103.841 48.8701 104.435 49.4792V48.667H106.627V49.6822ZM102.551 53.601C103.636 53.601 104.435 52.7482 104.435 51.6111C104.435 50.4944 103.636 49.6416 102.571 49.6416C101.506 49.6416 100.728 50.4741 100.728 51.6111C100.728 52.7888 101.485 53.601 102.551 53.601Z" fill="#333333"/>
<path d="M107.979 49.6822H107.057V48.6873H109.126V53.4385H110.048V54.4334H107.057V53.4385H107.979V49.6822ZM109.208 46.7178C109.208 47.1036 108.9 47.4081 108.511 47.4081C108.122 47.4081 107.815 47.1036 107.815 46.7178C107.815 46.332 108.122 46.0274 108.511 46.0274C108.9 46.0274 109.208 46.3523 109.208 46.7178Z" fill="#333333"/>
<path d="M110.703 48.6873H111.461V47.7939L112.608 46.7584V48.6873H113.673V49.6822H112.608V53.0121C112.608 53.5807 113.12 53.5401 113.673 53.3573V54.3725C113.407 54.4537 113.099 54.535 112.833 54.535C112.014 54.535 111.461 54.1695 111.461 53.1746V49.7025H110.703V48.6873Z" fill="#333333"/>
<path d="M120.433 54.4334H118.425V53.7228C117.708 54.3116 117.196 54.535 116.561 54.535C115.455 54.535 114.595 53.7228 114.595 52.7076C114.595 51.6517 115.517 50.8396 116.705 50.8396C117.217 50.8396 117.831 51.0223 118.282 51.3269V50.5756C118.282 49.7634 117.688 49.4589 116.991 49.4589C116.438 49.4589 116.008 49.6822 115.742 50.1492L114.656 49.865C115.148 48.9716 115.988 48.5249 117.155 48.5249C118.855 48.5249 119.429 49.3574 119.429 50.2914V53.4385H120.433V54.4334ZM118.282 52.2812C117.79 51.8954 117.278 51.7127 116.787 51.7127C116.152 51.7127 115.68 52.1187 115.68 52.7076C115.68 53.2761 116.111 53.6619 116.725 53.6619C117.237 53.6619 117.811 53.3979 118.282 52.9715V52.2812Z" fill="#333333"/>
<path d="M121.928 47.1645H120.904V46.1696H123.095V53.4385H123.997V54.4334H120.883V53.4385H121.948V47.1645H121.928Z" fill="#333333"/>
<path d="M79.302 4.74866H78.4212V58.6567H79.302V4.74866Z" fill="#333333"/>
<defs>
<linearGradient id="paint0_linear_201_1627" x1="90.4276" y1="18.1831" x2="8.70755" y2="93.2818" gradientUnits="userSpaceOnUse">
<stop offset="0.00487805" stop-color="#D68500"/>
<stop offset="1" stop-color="#9D141A"/>
</linearGradient>
</defs>
</svg>
